<svg xmlns="http://www.w3.org/2000/svg" xmlns:xlink="http://www.w3.org/1999/xlink" version="1.1" width="256" height="256" viewBox="0 0 256 256" xml:space="preserve">

<defs>
</defs>
<g style="stroke: none; stroke-width: 0; stroke-dasharray: none; stroke-linecap: butt; stroke-linejoin: miter; stroke-miterlimit: 10; fill: none; fill-rule: nonzero; opacity: 1;" transform="translate(1.4065934065934016 1.4065934065934016) scale(2.81 2.81)" >
	<path d="M 24.395 64.716 H 8.081 c -0.558 0 -1.011 -0.452 -1.011 -1.011 c 0 -0.559 0.453 -1.011 1.011 -1.011 h 16.315 c 0.558 0 1.011 0.452 1.011 1.011 C 25.406 64.264 24.954 64.716 24.395 64.716 z" style="stroke: none; stroke-width: 1; stroke-dasharray: none; stroke-linecap: butt; stroke-linejoin: miter; stroke-miterlimit: 10; fill: rgb(255,155,36); fill-rule: nonzero; opacity: 1;" transform=" matrix(1 0 0 1 0 0) " stroke-linecap="round" />
	<path d="M 24.824 56.812 H 1.011 C 0.453 56.812 0 56.359 0 55.801 c 0 -0.558 0.453 -1.011 1.011 -1.011 h 23.813 c 0.558 0 1.011 0.453 1.011 1.011 C 25.835 56.359 25.382 56.812 24.824 56.812 z" style="stroke: none; stroke-width: 1; stroke-dasharray: none; stroke-linecap: butt; stroke-linejoin: miter; stroke-miterlimit: 10; fill: rgb(255,155,36); fill-rule: nonzero; opacity: 1;" transform=" matrix(1 0 0 1 0 0) " stroke-linecap="round" />
	<path d="M 14.682 48.908 H 1.011 C 0.453 48.908 0 48.455 0 47.896 c 0 -0.558 0.453 -1.011 1.011 -1.011 h 13.671 c 0.558 0 1.011 0.453 1.011 1.011 C 15.693 48.455 15.241 48.908 14.682 48.908 z" style="stroke: none; stroke-width: 1; stroke-dasharray: none; stroke-linecap: butt; stroke-linejoin: miter; stroke-miterlimit: 10; fill: rgb(255,155,36); fill-rule: nonzero; opacity: 1;" transform=" matrix(1 0 0 1 0 0) " stroke-linecap="round" />
	<path d="M 14.682 41.003 H 8.081 c -0.558 0 -1.011 -0.453 -1.011 -1.011 c 0 -0.558 0.453 -1.011 1.011 -1.011 h 6.602 c 0.558 0 1.011 0.453 1.011 1.011 C 15.693 40.55 15.241 41.003 14.682 41.003 z" style="stroke: none; stroke-width: 1; stroke-dasharray: none; stroke-linecap: butt; stroke-linejoin: miter; stroke-miterlimit: 10; fill: rgb(255,155,36); fill-rule: nonzero; opacity: 1;" transform=" matrix(1 0 0 1 0 0) " stroke-linecap="round" />
	<circle cx="42.946999999999996" cy="67.70700000000001" r="7.937" style="stroke: none; stroke-width: 1; stroke-dasharray: none; stroke-linecap: butt; stroke-linejoin: miter; stroke-miterlimit: 10; fill: rgb(51,41,41); fill-rule: nonzero; opacity: 1;" transform="  matrix(1 0 0 1 0 0) "/>
	<path d="M 54.977 45.524 v -3.11 H 42.155 v 2.281 v 1.125 v 6.964 h 5.672 c 2.451 0 4.438 1.987 4.438 4.438 v 2.612 c 0 1.509 1.223 2.732 2.732 2.732 h 4.443 v -9.88 C 59.44 49.541 57.618 46.828 54.977 45.524 z" style="stroke: none; stroke-width: 1; stroke-dasharray: none; stroke-linecap: butt; stroke-linejoin: miter; stroke-miterlimit: 10; fill: rgb(59,101,168); fill-rule: nonzero; opacity: 1;" transform=" matrix(1 0 0 1 0 0) " stroke-linecap="round" />
	<circle cx="42.947" cy="67.707" r="3.997" style="stroke: none; stroke-width: 1; stroke-dasharray: none; stroke-linecap: butt; stroke-linejoin: miter; stroke-miterlimit: 10; fill: rgb(239,182,90); fill-rule: nonzero; opacity: 1;" transform="  matrix(1 0 0 1 0 0) "/>
	<circle cx="82.067" cy="67.70700000000001" r="7.937" style="stroke: none; stroke-width: 1; stroke-dasharray: none; stroke-linecap: butt; stroke-linejoin: miter; stroke-miterlimit: 10; fill: rgb(51,41,41); fill-rule: nonzero; opacity: 1;" transform="  matrix(1 0 0 1 0 0) "/>
	<circle cx="82.067" cy="67.707" r="3.997" style="stroke: none; stroke-width: 1; stroke-dasharray: none; stroke-linecap: butt; stroke-linejoin: miter; stroke-miterlimit: 10; fill: rgb(239,182,90); fill-rule: nonzero; opacity: 1;" transform="  matrix(1 0 0 1 0 0) "/>
	<path d="M 77.222 37.106 h 0.553 c 0.674 0 1.22 0.546 1.22 1.22 v 5.719 c 0 0.674 -0.546 1.22 -1.22 1.22 h -0.553 c -2.253 0 -4.08 -1.827 -4.08 -4.08 v 0 C 73.142 38.933 74.969 37.106 77.222 37.106 z" style="stroke: none; stroke-width: 1; stroke-dasharray: none; stroke-linecap: butt; stroke-linejoin: miter; stroke-miterlimit: 10; fill: rgb(255,155,36); fill-rule: nonzero; opacity: 1;" transform=" matrix(1 0 0 1 0 0) " stroke-linecap="round" />
	<path d="M 32.044 66.791 h 42.483 c 0 -3.985 5.022 -8.514 8.514 -8.514 L 71.267 37.626 h -4.774 l 4.182 19.755 c 0.188 0.89 -0.038 1.817 -0.616 2.52 v 0 c -0.568 0.692 -1.417 1.093 -2.312 1.093 h -12.75 c -1.509 0 -2.732 -1.223 -2.732 -2.732 v -2.612 c 0 -2.451 -1.987 -4.438 -4.438 -4.438 h -6.432 c -4.356 0 -8.252 2.708 -9.771 6.79 l -1.983 5.33 C 29.017 65.008 30.256 66.791 32.044 66.791 z" style="stroke: none; stroke-width: 1; stroke-dasharray: none; stroke-linecap: butt; stroke-linejoin: miter; stroke-miterlimit: 10; fill: rgb(215,28,34); fill-rule: nonzero; opacity: 1;" transform=" matrix(1 0 0 1 0 0) " stroke-linecap="round" />
	<path d="M 69.887 35.645 h -2.901 l 0 3.538 c 1.226 0.073 3.137 0.298 4.111 0.749 c 0.414 0.191 0.887 -0.096 0.887 -0.552 v -1.638 C 71.983 36.584 71.045 35.645 69.887 35.645 z" style="stroke: none; stroke-width: 1; stroke-dasharray: none; stroke-linecap: butt; stroke-linejoin: miter; stroke-miterlimit: 10; fill: rgb(246,183,125); fill-rule: nonzero; opacity: 1;" transform=" matrix(1 0 0 1 0 0) " stroke-linecap="round" />
	<path d="M 89.404 62.358 c -1.087 -2.285 -3.152 -4.116 -5.924 -4.792 c -3.594 -0.877 -7.448 0.665 -9.438 3.783 c -1.402 2.196 -1.714 4.676 -1.16 6.916 c 0.117 0.474 0.74 0.589 1.041 0.205 c 3.471 -4.432 9.244 -6.54 14.804 -5.289 C 89.205 63.287 89.614 62.8 89.404 62.358 z" style="stroke: none; stroke-width: 1; stroke-dasharray: none; stroke-linecap: butt; stroke-linejoin: miter; stroke-miterlimit: 10; fill: rgb(193,23,29); fill-rule: nonzero; opacity: 1;" transform=" matrix(1 0 0 1 0 0) " stroke-linecap="round" />
	<path d="M 55.697 36.156 L 55.697 36.156 c 0 2.961 2.4 5.361 5.361 5.361 h 4.592 c 1.171 0 2.12 -0.949 2.12 -2.12 v -3.751 l -3.476 0 c -0.944 0 -1.776 -0.599 -2.096 -1.488 c -0.877 -2.431 -3.65 -5.278 -7.113 -5.278 h 0 c -6.277 0.01 -11.361 5.102 -11.361 11.379 v 4.436 h 7.722 c 1.254 0 2.441 0.289 3.498 0.804 l 0 0.001 c -0.031 -1.636 1.002 -3.273 3.1 -4.909" style="stroke: none; stroke-width: 1; stroke-dasharray: none; stroke-linecap: butt; stroke-linejoin: miter; stroke-miterlimit: 10; fill: rgb(193,23,29); fill-rule: nonzero; opacity: 1;" transform=" matrix(1 0 0 1 0 0) " stroke-linecap="round" />
	<path d="M 66.727 22.245 c 0 4.358 -3.533 7.89 -7.89 7.89 s -8.685 -5.889 -8.685 -10.247 s 4.328 -5.534 8.685 -5.534 S 66.727 17.888 66.727 22.245 z" style="stroke: none; stroke-width: 1; stroke-dasharray: none; stroke-linecap: butt; stroke-linejoin: miter; stroke-miterlimit: 10; fill: rgb(255,155,36); fill-rule: nonzero; opacity: 1;" transform=" matrix(1 0 0 1 0 0) " stroke-linecap="round" />
	<path d="M 60.261 30.005 c 3.271 -0.597 5.837 -3.208 6.365 -6.503 l -5.957 -1.43 c -1.309 -0.314 -2.468 0.904 -2.089 2.196 L 60.261 30.005 z" style="stroke: none; stroke-width: 1; stroke-dasharray: none; stroke-linecap: butt; stroke-linejoin: miter; stroke-miterlimit: 10; fill: rgb(246,183,125); fill-rule: nonzero; opacity: 1;" transform=" matrix(1 0 0 1 0 0) " stroke-linecap="round" />
	<path d="M 24.26 33.092 h 16.084 c 1.868 0 3.383 1.514 3.383 3.383 v 14.738 H 24.26 c -1.868 0 -3.383 -1.514 -3.383 -3.383 V 36.475 C 20.877 34.606 22.392 33.092 24.26 33.092 z" style="stroke: none; stroke-width: 1; stroke-dasharray: none; stroke-linecap: butt; stroke-linejoin: miter; stroke-miterlimit: 10; fill: rgb(255,155,36); fill-rule: nonzero; opacity: 1;" transform=" matrix(1 0 0 1 0 0) " stroke-linecap="round" />
</g>
</svg>